<svg xmlns="http://www.w3.org/2000/svg" width="1468" height="972.017" viewBox="0 0 1468 972.017">
  <path id="sunburst" d="M0,184.615c35.866-.172,184-4.834,203.073,2.426L731.553,668.19,0,244.455Zm400.03,0H581.083l110.1,350.147,29.36,93c3.458,9.726,15.6,29.223,11.01,38.815v-1.617Zm326.63,0H897.927l-162.7,481.958c-2.487,9.452,7.86,28.217,12.233,39.624L781.71,807.279,899.15,1155H730.33L734,671.425c-35.94-.83-90.407,4.062-129.673,8.9l-130.9,9.7L0,724.8V615.628l549.277,41.241L734,669Q730.33,426.831,726.66,184.615Zm331.523,0,218.977.809-3.67,2.426L737.67,666.573Zm408.593,39.624q.612,84.092,1.224,168.2L738.893,668.19ZM0,385.97,730.33,668.19V669L0,516.972ZM1468,622.905,738.893,669,1468,508.885ZM736.447,666.573l1.223,1.617ZM1468,717.518V830.73h-1.224L738.893,670.616ZM726.66,671.425h3.67v.809L0,957.688v-131ZM0,1155v-54.989L731.553,672.233,206.743,1155ZM736.447,672.233l1.223,1.617Zm2.447,0L1468,940.707q-.612,82.07-1.224,164.157l-11.01-7.278Zm-7.34,1.617c4.948,9.138-7.62,29.422-11.01,38.816L689.96,808.9,581.083,1155H400.03v-.809Zm6.117,0L1277.16,1155l-220.2-.809Z" transform="translate(0 -182.983)" opacity="0.051"/>
</svg>
