<svg xmlns="http://www.w3.org/2000/svg" viewBox="0 0 50 42">
  <path id="icon" d="M567.447,1011a3.479,3.479,0,0,1-3.448-3.5V977.75a3.479,3.479,0,0,1,3.448-3.5H570.9V969l13.792.11-.005,5.17,25.868-.03a3.479,3.479,0,0,1,3.448,3.5v29.75a3.479,3.479,0,0,1-3.448,3.5Zm6.978-26.231a12.379,12.379,0,0,0,0,17.323,11.944,11.944,0,0,0,17.069,0,12.379,12.379,0,0,0,0-17.323,11.944,11.944,0,0,0-17.069,0Zm28.365-2.608a3.45,3.45,0,1,0,3.45-3.5A3.48,3.48,0,0,0,602.79,982.16Zm-28.45-4.41h6.9V972.5h-6.9Zm.869,15.97a7.761,7.761,0,1,1,7.76,7.87A7.816,7.816,0,0,1,575.21,993.72Z" transform="translate(-563.999 -968.999)" />
</svg>
