<svg xmlns="http://www.w3.org/2000/svg" viewBox="0 0 33.451 33.736">
  <path id="dribbble.png" d="M1135.549,63.131A16.726,16.726,0,1,1,1152.275,80,16.8,16.8,0,0,1,1135.549,63.131Zm4.18,0a12.545,12.545,0,1,0,12.545-12.65A12.6,12.6,0,0,0,1139.729,63.131Zm11.066,7.258a7.271,7.271,0,0,1-2.63-1.116,7.393,7.393,0,0,1-2.66-3.259,7.472,7.472,0,0,1,0-5.767,7.433,7.433,0,0,1,2.66-3.26,7.38,7.38,0,0,1,1.249-.682,7.3,7.3,0,0,1,6.969.682,7.5,7.5,0,0,1,1.085.9,7.639,7.639,0,0,1,.9,1.1,7.46,7.46,0,0,1,0,8.287,7.646,7.646,0,0,1-.9,1.1,7.543,7.543,0,0,1-1.085.9,7.313,7.313,0,0,1-5.588,1.116Zm2.547-6.223a10.647,10.647,0,0,0-1.041.435c-.047.022-.1.043-.14.066-.3.149-.58.306-.84.468-.049.031-.1.06-.144.091-.25.163-.484.328-.7.5-.033.026-.064.052-.1.079-.214.174-.414.347-.59.517s-.334.341-.474.5l-.059.068c-.129.15-.239.292-.336.422-.019.025-.037.049-.053.073-.09.124-.167.239-.229.338-.01.016-.019.031-.028.047-.058.094-.107.178-.138.236.117.094.235.186.358.271a6.267,6.267,0,0,0,1.045.572,6.11,6.11,0,0,0,1.154.362,6.158,6.158,0,0,0,2.479,0,6.093,6.093,0,0,0,1.155-.362c.012,0,.023-.012.034-.016a26.913,26.913,0,0,0-1.319-4.675Zm1.215-.3a28.392,28.392,0,0,1,1.2,4.378,6.177,6.177,0,0,0,.867-.726,6.206,6.206,0,0,0,1.677-3.135c.018-.094.027-.19.042-.284-.05-.014-.12-.033-.2-.053l-.037-.01c-.177-.044-.411-.1-.693-.143h0a9.393,9.393,0,0,0-1.534-.128A8.294,8.294,0,0,0,1154.557,63.864Zm-8.09-.933c-.141,0-.255,0-.331,0,0,.067-.011.132-.011.2a6.357,6.357,0,0,0,.125,1.249,6.167,6.167,0,0,0,.358,1.165,6.317,6.317,0,0,0,.567,1.054,6.623,6.623,0,0,0,.511.624c.042-.067.1-.162.177-.27l.037-.054c.077-.112.171-.24.279-.382l.064-.082c.115-.148.244-.3.391-.472.022-.025.045-.05.068-.076.159-.178.332-.362.526-.551s.4-.37.625-.554l.1-.084c.219-.175.454-.347.7-.512.048-.032.094-.062.143-.092a8.593,8.593,0,0,1,.813-.462c.043-.022.088-.041.132-.061a8.083,8.083,0,0,1,.967-.392c.08-.026.161-.046.242-.069-.159-.362-.326-.725-.508-1.083A22.953,22.953,0,0,1,1146.467,62.931Zm9.741-.143.042,0c.178.008.348.019.513.032l.116.009c.16.014.313.029.455.045l.029,0c.152.018.29.036.418.055l.092.014c.1.014.181.029.258.042l.064.01c.091.016.167.031.223.042a6.5,6.5,0,0,0-.12-1.162,6.208,6.208,0,0,0-.926-2.217c-.1-.153-.233-.284-.349-.428a8.149,8.149,0,0,1-2.651,2.024l-.05.025c-.22.111-.453.218-.7.321.148.305.291.615.423.927.047.112.086.219.13.328.223-.028.445-.048.666-.061l.111-.006c.188-.01.373-.016.555-.017l.093,0Q1155.912,62.776,1156.208,62.788Zm-7.372-4.8a6.3,6.3,0,0,0-.909.758,6.184,6.184,0,0,0-.751.918,6.344,6.344,0,0,0-.567,1.053,6.143,6.143,0,0,0-.345,1.11l.266,0h.008c.226,0,.538-.015.919-.041h0a23.939,23.939,0,0,0,3.888-.582h0c.191-.044.383-.094.578-.145a38.451,38.451,0,0,0-2.25-3.537A6.148,6.148,0,0,0,1148.836,57.989Zm2.2-.933c-.052.011-.1.029-.155.041a32.447,32.447,0,0,1,2.255,3.569c.246-.093.475-.192.689-.292l.012-.006a6.872,6.872,0,0,0,2.492-1.865,6.285,6.285,0,0,0-.616-.513,6.2,6.2,0,0,0-1.045-.571,6.115,6.115,0,0,0-1.155-.362,6.2,6.2,0,0,0-2.479,0Z" transform="translate(-1135.549 -46.264)" />
</svg>
