<svg xmlns="http://www.w3.org/2000/svg" viewBox="0 0 33.452 33.736">
  <path id="google-plus.png" d="M1093.734,63.131A16.727,16.727,0,1,1,1110.461,80,16.8,16.8,0,0,1,1093.734,63.131Zm4.181,0a12.545,12.545,0,1,0,12.545-12.65A12.6,12.6,0,0,0,1097.915,63.131Zm6.227,4.634c0-1.378,1.565-2.732,3.633-2.732.225,0,.458.02.672.02a1.316,1.316,0,0,1-.473-.986,1.723,1.723,0,0,1,.155-.752c-.112.008-.228.01-.346.01a2.7,2.7,0,0,1-2.837-2.729,3.139,3.139,0,0,1,3.241-2.754h3.725l-.833.608H1109.9a2.238,2.238,0,0,1,1.2,2.17,2.528,2.528,0,0,1-1.052,1.961c-.6.473-.715.671-.715,1.075,0,.344.643.928.981,1.168a2.626,2.626,0,0,1,1.3,2.442c0,1.356-1.3,2.705-3.66,2.705C1105.887,69.971,1104.143,69.123,1104.143,67.766Zm1.343-.4a2.236,2.236,0,0,0,2.462,2.009c2.01,0,2.711-.857,2.711-1.953a1.724,1.724,0,0,0-.045-.387c-.158-.621-.715-.929-1.49-1.472a3.077,3.077,0,0,0-.927-.15h-.036C1106.745,65.408,1105.485,66.3,1105.485,67.362Zm.8-6.773a2.529,2.529,0,0,0,2.038,2.352c.959.03,1.6-.977,1.437-2.248a2.492,2.492,0,0,0-2.038-2.319h-.041C1106.746,58.372,1106.123,59.336,1106.286,60.589Zm8.348,2.573.013-2.15h-2.131V59.945h2.1v-2.1l1.091-.014.013,2.17h2.054v1.017h-2.086V63.17Z" transform="translate(-1093.734 -46.264)" />
</svg>
