<svg xmlns="http://www.w3.org/2000/svg" viewBox="0 0 33.016 42.015">
  <path id="link" d="M395.546,495.358l-6.02,10.473a3.431,3.431,0,0,1-4.7,1.264l-1.49-.864,1.72-2.992h0a1.716,1.716,0,0,0,2.349-.632l4.3-7.48a1.731,1.731,0,0,0-.63-2.36l-5.958-3.455a1.715,1.715,0,0,0-2.349.632l-4.3,7.48a1.732,1.732,0,0,0,.63,2.36l-1.72,2.992-1.489-.864a3.464,3.464,0,0,1-1.259-4.72l6.02-10.473a3.431,3.431,0,0,1,4.7-1.264l8.937,5.182A3.464,3.464,0,0,1,395.546,495.358ZM375.2,513.48a1.732,1.732,0,0,1-.629-2.36l6.879-11.969a1.722,1.722,0,1,1,2.979,1.727l-6.879,11.969A1.716,1.716,0,0,1,375.2,513.48Zm-1.259-4.72h0a1.716,1.716,0,0,0-2.349.632l-4.3,7.48a1.732,1.732,0,0,0,.63,2.36l5.958,3.455a1.716,1.716,0,0,0,2.349-.632l4.3-7.48a1.732,1.732,0,0,0-.63-2.36h0l1.72-2.992,1.49.864a3.463,3.463,0,0,1,1.259,4.72l-6.02,10.472a3.431,3.431,0,0,1-4.7,1.265l-8.937-5.182a3.464,3.464,0,0,1-1.259-4.72l6.02-10.473a3.431,3.431,0,0,1,4.7-1.265l1.489.864Z" transform="translate(-362.992 -484.992)" fill="#fff"/>
</svg>
