<svg xmlns="http://www.w3.org/2000/svg" xmlns:xlink="http://www.w3.org/1999/xlink" viewBox="0 0 33.875 51.94">
  <defs>
    <filter id="marker" x="0" y="0" width="33.875" height="51.94" filterUnits="userSpaceOnUse">
      <feOffset dy="1" input="SourceAlpha"/>
      <feGaussianBlur stdDeviation="0.5" result="blur"/>
      <feFlood flood-opacity="0.2"/>
      <feComposite operator="in" in2="blur"/>
    </filter>
    <filter id="marker-2" x="0" y="0" width="33.875" height="51.94" filterUnits="userSpaceOnUse">
      <feOffset dy="2" input="SourceAlpha"/>
      <feGaussianBlur result="blur-2"/>
      <feFlood flood-color="#fff" flood-opacity="0.251" result="color"/>
      <feComposite operator="out" in="SourceGraphic" in2="blur-2"/>
      <feComposite operator="in" in="color"/>
      <feComposite operator="in" in2="SourceGraphic"/>
    </filter>
    <linearGradient id="linear-gradient" x1="9.776" y1="32.431" x2="9.776" y2="-19.102" gradientUnits="objectBoundingBox">
      <stop offset="0"/>
      <stop offset="1" stop-color="#fff"/>
    </linearGradient>
  </defs>
  <g id="marker-3" data-name="marker" transform="translate(-405.938 -503)">
    <g data-type="innerShadowGroup">
      <g transform="matrix(1, 0, 0, 1, 405.94, 503)" filter="url(#marker)">
        <path id="marker-4" data-name="marker" d="M422.875,551.94c-.486,0-4.265-6.313-7.82-13.408-2.017-4.026-3.717-7.815-4.915-10.958-1.461-3.832-2.2-6.739-2.2-8.637a14.937,14.937,0,1,1,29.875,0c0,1.9-.731,4.809-2.171,8.637-1.192,3.167-2.874,6.956-4.864,10.958C427.084,545.96,423.435,551.94,422.875,551.94Zm.075-38.86a5.02,5.02,0,1,0,5.02,5.02A5.025,5.025,0,0,0,422.95,513.08Z" transform="translate(-405.94 -503)" fill="#2f9042" stroke="#707070" stroke-width="1"/>
      </g>
      <path id="marker-5" data-name="marker" d="M422.875,551.94c-.486,0-4.265-6.313-7.82-13.408-2.017-4.026-3.717-7.815-4.915-10.958-1.461-3.832-2.2-6.739-2.2-8.637a14.937,14.937,0,1,1,29.875,0c0,1.9-.731,4.809-2.171,8.637-1.192,3.167-2.874,6.956-4.864,10.958C427.084,545.96,423.435,551.94,422.875,551.94Zm.075-38.86a5.02,5.02,0,1,0,5.02,5.02A5.025,5.025,0,0,0,422.95,513.08Z" fill="#2f9042"/>
      <g transform="matrix(1, 0, 0, 1, 405.94, 503)" filter="url(#marker-2)">
        <path id="marker-6" data-name="marker" d="M422.875,551.94c-.486,0-4.265-6.313-7.82-13.408-2.017-4.026-3.717-7.815-4.915-10.958-1.461-3.832-2.2-6.739-2.2-8.637a14.937,14.937,0,1,1,29.875,0c0,1.9-.731,4.809-2.171,8.637-1.192,3.167-2.874,6.956-4.864,10.958C427.084,545.96,423.435,551.94,422.875,551.94Zm.075-38.86a5.02,5.02,0,1,0,5.02,5.02A5.025,5.025,0,0,0,422.95,513.08Z" transform="translate(-405.94 -503)" fill="#fff"/>
      </g>
      <path id="marker-7" data-name="marker" d="M422.875,551.94c-.486,0-4.265-6.313-7.82-13.408-2.017-4.026-3.717-7.815-4.915-10.958-1.461-3.832-2.2-6.739-2.2-8.637a14.937,14.937,0,1,1,29.875,0c0,1.9-.731,4.809-2.171,8.637-1.192,3.167-2.874,6.956-4.864,10.958C427.084,545.96,423.435,551.94,422.875,551.94Zm.075-38.86a5.02,5.02,0,1,0,5.02,5.02A5.025,5.025,0,0,0,422.95,513.08Z" fill="none" stroke="#707070" stroke-width="1"/>
    </g>
    <path id="Gradient_Overlay" data-name="Gradient Overlay" d="M407.938,518.937a14.937,14.937,0,1,1,29.875,0c0,8.25-13.781,33-14.937,33C421.938,551.94,407.938,527.188,407.938,518.937Z" opacity="0.4" fill="url(#linear-gradient)" style="mix-blend-mode: overlay;isolation: isolate"/>
    <g id="Stroke_Effect" data-name="Stroke Effect" fill="none" stroke-linejoin="round">
      <path d="M407.938,518.937a14.937,14.937,0,1,1,29.875,0c0,8.25-13.781,33-14.937,33C421.938,551.94,407.938,527.188,407.938,518.937Z" stroke="none"/>
      <path d="M 422.8749084472656 505 C 419.1522521972656 505 415.6523132324219 506.4497680664062 413.0198364257812 509.0822143554688 C 410.3873901367188 511.7147216796875 408.9376220703125 515.2146606445312 408.9376220703125 518.9373168945312 C 408.9376220703125 520.630859375 409.6302795410156 523.3723754882812 410.940673828125 526.8653564453125 C 412.0608825683594 529.851318359375 413.6645202636719 533.4734497070312 415.5781860351562 537.3401489257812 C 418.6524963378906 543.5518798828125 421.6528015136719 548.6609497070312 422.9024353027344 550.4656982421875 C 423.3696899414062 549.818603515625 424.1484375 548.6268310546875 425.3037109375 546.6382446289062 C 426.8992614746094 543.8917846679688 428.6583557128906 540.5853881835938 430.2569274902344 537.3281860351562 C 434.4229125976562 528.839599609375 436.8122253417969 522.1364135742188 436.8122253417969 518.9373168945312 C 436.8122253417969 515.2145385742188 435.3625793457031 511.714599609375 432.7303161621094 509.0822143554688 C 430.0979614257812 506.4497680664062 426.597900390625 505 422.8749084472656 505 M 422.8749084472656 504 C 431.1252136230469 504 437.8122253417969 510.6879272460938 437.8122253417969 518.9373168945312 C 437.8122253417969 527.1876220703125 424.0314025878906 551.9403076171875 422.8749084472656 551.9403076171875 C 421.9380187988281 551.9403076171875 407.9376220703125 527.1876220703125 407.9376220703125 518.9373168945312 C 407.9376220703125 510.6879272460938 414.6255187988281 504 422.8749084472656 504 Z" stroke="none" fill="#707070"/>
    </g>
  </g>
</svg>
