<svg xmlns="http://www.w3.org/2000/svg" viewBox="0 0 33.451 33.736">
  <path id="pinterest.png" d="M1051.92,63.131A16.726,16.726,0,1,1,1068.646,80,16.8,16.8,0,0,1,1051.92,63.131Zm4.181,0a12.545,12.545,0,1,0,12.544-12.65A12.6,12.6,0,0,0,1056.1,63.131Zm9.44,7.43a9.2,9.2,0,0,1,.024-3.094l1.038-4.435a3.156,3.156,0,0,1-.257-1.288c0-1.207.694-2.108,1.557-2.108a1.087,1.087,0,0,1,1.089,1.222,17.622,17.622,0,0,1-.713,2.889,1.257,1.257,0,0,0,1.274,1.568c1.529,0,2.56-1.981,2.56-4.328a3.033,3.033,0,0,0-3.359-3.119,3.839,3.839,0,0,0-3.974,3.9,2.364,2.364,0,0,0,.533,1.6.4.4,0,0,1,.116.454c-.039.15-.127.51-.165.653a.278.278,0,0,1-.4.2,3.14,3.14,0,0,1-1.653-3.11c0-2.313,1.934-5.086,5.769-5.086a4.842,4.842,0,0,1,5.11,4.664c0,3.193-1.76,5.579-4.355,5.579a2.309,2.309,0,0,1-1.972-1.014s-.469,1.875-.568,2.237a8.72,8.72,0,0,1-1.457,2.664.11.11,0,0,1-.088.043A.1.1,0,0,1,1065.542,70.562Z" transform="translate(-1051.92 -46.264)" />
</svg>
