<svg xmlns="http://www.w3.org/2000/svg" viewBox="0 0 33.451 33.736">
  <path id="rss.png" d="M1010.106,63.131A16.726,16.726,0,1,1,1026.832,80,16.8,16.8,0,0,1,1010.106,63.131Zm4.181,0a12.545,12.545,0,1,0,12.544-12.65A12.6,12.6,0,0,0,1014.287,63.131Zm8.263,3.449a1.2,1.2,0,1,1,1.2,1.21A1.205,1.205,0,0,1,1022.55,66.58Zm8.222,1.208a8.273,8.273,0,0,0-8.228-8.3V57.509a10.237,10.237,0,0,1,10.193,10.279Zm-3.568,0a4.686,4.686,0,0,0-4.66-4.7v-1.98a6.653,6.653,0,0,1,6.624,6.681Z" transform="translate(-1010.106 -46.264)" />
</svg>
