<svg xmlns="http://www.w3.org/2000/svg" viewBox="0 0 45.004 45.975">
  <path id="icon" d="M848.082,1007.994l-1.094,1.092a3.1,3.1,0,0,1-4.375,0l-8.749-8.738a3.043,3.043,0,0,1-.436-3.713l-4.783-4.776a15.486,15.486,0,1,1,2.291-2.081l4.679,4.673a3.053,3.053,0,0,1,3.717.436l8.749,8.738A3.087,3.087,0,0,1,848.082,1007.994Zm-17.065-28.6a11.535,11.535,0,0,0-16.564-10.43c.807.828,2.025,2.066,2.089,2.066-1.257,0-5.371,4.109-5.371,5.461,0-.065-1.309-1.306-2.166-2.112a11.458,11.458,0,0,0-1.187,5.016,11.6,11.6,0,0,0,23.2,0Z" transform="translate(-803.983 -964.016)" />
</svg>
