<svg xmlns="http://www.w3.org/2000/svg" viewBox="0 0 33.451 33.737">
  <path id="twitter.png" d="M927,62.869a16.726,16.726,0,1,1,16.726,16.868A16.8,16.8,0,0,1,927,62.869Zm4.181,0a12.545,12.545,0,1,0,12.544-12.651A12.6,12.6,0,0,0,931.181,62.869Zm5.928,4.621a5.39,5.39,0,0,0,3.978-1.122,2.692,2.692,0,0,1-2.51-1.882,2.665,2.665,0,0,0,1.213-.047,2.706,2.706,0,0,1-2.156-2.657v-.034a2.649,2.649,0,0,0,1.218.338,2.725,2.725,0,0,1-.832-3.617,7.605,7.605,0,0,0,5.538,2.83,2.731,2.731,0,0,1-.069-.616,2.684,2.684,0,0,1,4.648-1.855,5.333,5.333,0,0,0,1.706-.657,2.714,2.714,0,0,1-1.182,1.5,5.362,5.362,0,0,0,1.544-.427,5.491,5.491,0,0,1-1.341,1.4q.008.174.008.351a7.629,7.629,0,0,1-11.764,6.493Z" transform="translate(-927 -46)" />
</svg>
