<svg xmlns="http://www.w3.org/2000/svg" viewBox="0 0 49.999 58">
  <path id="icon" d="M362.87,1016a1.562,1.562,0,0,1-1.562-1.562v-1a7.377,7.377,0,0,1-1.71-.7l-.959.958a1.562,1.562,0,0,1-2.21,0l-.552-.552a1.561,1.561,0,0,1,0-2.209l.953-.952a7.372,7.372,0,0,1-.716-1.715h-1.031a1.561,1.561,0,0,1-1.562-1.561v-.781a1.562,1.562,0,0,1,1.562-1.562H356.1a7.356,7.356,0,0,1,.691-1.7l-.916-.915a1.561,1.561,0,0,1,0-2.209l.552-.552a1.562,1.562,0,0,1,2.21,0l.9.9a7.377,7.377,0,0,1,1.771-.74v-1.049a1.561,1.561,0,0,1,1.562-1.561h.781a1.561,1.561,0,0,1,1.562,1.561v1.049a7.385,7.385,0,0,1,1.77.74l.9-.9a1.561,1.561,0,0,1,2.209,0l.553.552a1.561,1.561,0,0,1,0,2.209l-.916.915a7.436,7.436,0,0,1,.691,1.7h1.019a1.562,1.562,0,0,1,1.561,1.562v.781a1.561,1.561,0,0,1-1.561,1.561h-1.031a7.372,7.372,0,0,1-.715,1.715l.953.952a1.561,1.561,0,0,1,0,2.209l-.553.552a1.561,1.561,0,0,1-2.209,0l-.959-.958a7.409,7.409,0,0,1-1.71.7v1a1.562,1.562,0,0,1-1.562,1.562Zm-3.905-9.661a4.3,4.3,0,1,0,4.3-4.294A4.295,4.295,0,0,0,358.965,1006.34Zm2.344-.049a1.953,1.953,0,1,1,1.952,1.951A1.952,1.952,0,0,1,361.309,1006.291Zm-19.034-8.153a3.219,3.219,0,0,1-3.22-3.218v-2.062a15.179,15.179,0,0,1-3.525-1.45l-1.978,1.976a3.222,3.222,0,0,1-4.555,0l-1.138-1.138a3.217,3.217,0,0,1,0-4.552l1.966-1.966a15.174,15.174,0,0,1-1.476-3.535H326.22a3.22,3.22,0,0,1-3.22-3.219v-1.609a3.22,3.22,0,0,1,3.22-3.219h2.1a15.212,15.212,0,0,1,1.426-3.511l-1.889-1.888a3.218,3.218,0,0,1,0-4.553L329,963.056a3.222,3.222,0,0,1,4.555,0l1.853,1.851a15.176,15.176,0,0,1,3.65-1.525v-2.163a3.22,3.22,0,0,1,3.22-3.219h1.611a3.221,3.221,0,0,1,3.221,3.219v2.163a15.191,15.191,0,0,1,3.65,1.525l1.852-1.851a3.223,3.223,0,0,1,4.556,0l1.138,1.138a3.218,3.218,0,0,1,0,4.553l-1.89,1.888a15.134,15.134,0,0,1,1.426,3.511h2.1a3.221,3.221,0,0,1,3.221,3.219v1.609a3.22,3.22,0,0,1-3.221,3.219h-2.127a15.173,15.173,0,0,1-1.475,3.535l1.966,1.966a3.217,3.217,0,0,1,0,4.552l-1.138,1.138a3.223,3.223,0,0,1-4.556,0l-1.977-1.976a15.2,15.2,0,0,1-3.525,1.45v2.062a3.22,3.22,0,0,1-3.221,3.218Zm-8.052-19.918a8.858,8.858,0,1,0,8.858-8.852A8.856,8.856,0,0,0,334.222,978.22Zm4.832-.1a4.026,4.026,0,1,1,4.026,4.024A4.025,4.025,0,0,1,339.054,978.119Z" transform="translate(-323 -958)" />
</svg>
